<?xml version="1.0" ?>
<svg xmlns="http://www.w3.org/2000/svg" xmlns:xlink="http://www.w3.org/1999/xlink" width="24684pt" height="11435pt" viewBox="0.00 0.00 24683.50 11434.50">
	<g id="graph0" class="graph" transform="scale(1 1) rotate(0) translate(4 11430.5)">
		<title>G</title>
		<polygon fill="white" stroke="none" points="-4,4 -4,-11430.5 24679.5,-11430.5 24679.5,4 -4,4"/>
		<g id="arrow1" class="arrow">
			<polygon fill="black" stroke="black" points="248.75,-273 258.75,-269.5 248.75,-266 248.75,-273"/>
		</g>
		<g id="arrow2" class="arrow">
			<polygon fill="black" stroke="black" points="248.75,-180 258.75,-176.5 248.75,-173 248.75,-180"/>
		</g>
		<g id="arrow3" class="arrow">
			<polygon fill="black" stroke="black" points="508.75,-273 518.75,-269.5 508.75,-266 508.75,-273"/>
		</g>
		<g id="arrow4" class="arrow">
			<polygon fill="black" stroke="black" points="768.72,-356 778.72,-352.5 768.72,-349 768.72,-356"/>
		</g>
		<g id="arrow5" class="arrow">
			<polygon fill="black" stroke="black" points="508.75,-180 518.75,-176.5 508.75,-173 508.75,-180"/>
		</g>
		<g id="arrow6" class="arrow">
			<polygon fill="black" stroke="black" points="768.72,-97 778.72,-93.5 768.72,-90 768.72,-97"/>
		</g>
		<g id="arrow7" class="arrow">
			<polygon fill="black" stroke="black" points="878.5,-320.78 882,-330.78 885.5,-320.78 878.5,-320.78"/>
		</g>
		<g id="arrow8" class="arrow">
			<polygon fill="black" stroke="black" points="834.5,-125.15 831,-115.15 827.5,-125.15 834.5,-125.15"/>
		</g>
		<g id="arrow9" class="arrow">
			<polygon fill="black" stroke="black" points="2068.63,-392.5 2078.63,-389 2068.63,-385.5 2068.63,-392.5"/>
		</g>
		<g id="arrow10" class="arrow">
			<polygon fill="black" stroke="black" points="1028.75,-434 1038.75,-430.5 1028.75,-427 1028.75,-434"/>
		</g>
		<g id="arrow11" class="arrow">
			<polygon fill="black" stroke="black" points="1288.72,-351 1298.72,-347.5 1288.72,-344 1288.72,-351"/>
		</g>
		<g id="arrow12" class="arrow">
			<polygon fill="black" stroke="black" points="2152.5,-320.62 2156,-330.62 2159.5,-320.62 2152.5,-320.62"/>
		</g>
		<g id="arrow13" class="arrow">
			<polygon fill="black" stroke="black" points="2068.77,-439.17 2078.77,-435.67 2068.77,-432.17 2068.77,-439.17"/>
		</g>
		<g id="arrow14" class="arrow">
			<polygon fill="black" stroke="black" points="1379.5,-374.22 1376,-364.22 1372.5,-374.22 1379.5,-374.22"/>
		</g>
		<g id="arrow15" class="arrow">
			<polygon fill="black" stroke="black" points="1548.75,-309.5 1558.75,-306 1548.75,-302.5 1548.75,-309.5"/>
		</g>
		<g id="arrow16" class="arrow">
			<polygon fill="black" stroke="black" points="1288.75,-262.83 1298.75,-259.33 1288.75,-255.83 1288.75,-262.83"/>
		</g>
		<g id="arrow17" class="arrow">
			<polygon fill="black" stroke="black" points="1808.75,-309.5 1818.75,-306 1808.75,-302.5 1808.75,-309.5"/>
		</g>
		<g id="arrow18" class="arrow">
			<polygon fill="black" stroke="black" points="2068.75,-351 2078.75,-347.5 2068.75,-344 2068.75,-351"/>
		</g>
		<g id="edge1" class="edge">
			<path fill="none" stroke="black" d="M152.25,-269.5 L248.75,-269.5"/>
			<polygon fill="black" stroke="black"/>
		</g>
		<g id="edge2" class="edge">
			<path fill="none" stroke="black" d="M152.25,-176.5 L248.75,-176.5"/>
			<polygon fill="black" stroke="black"/>
		</g>
		<g id="edge3" class="edge">
			<path fill="none" stroke="black" d="M412.25,-269.5 L508.75,-269.5"/>
			<polygon fill="black" stroke="black"/>
		</g>
		<g id="edge4" class="edge">
			<path fill="none" stroke="black" d="M412.45,-352.5 L768.72,-352.5"/>
			<polygon fill="black" stroke="black"/>
		</g>
		<g id="edge5" class="edge">
			<path fill="none" stroke="black" d="M412.25,-176.5 L508.75,-176.5"/>
			<polygon fill="black" stroke="black"/>
		</g>
		<g id="edge6" class="edge">
			<path fill="none" stroke="black" d="M412.45,-93.5 L768.72,-93.5"/>
			<polygon fill="black" stroke="black"/>
		</g>
		<g id="edge7" class="edge">
			<path fill="none" stroke="black" d="M672.27,-269.67 L882.0,-269.67"/>
			<polygon fill="black" stroke="black"/>
		</g>
		<g id="edge8" class="edge">
			<path fill="none" stroke="black" d="M882.0,-269.67 L882.0,-320.78"/>
			<polygon fill="black" stroke="black"/>
		</g>
		<g id="edge9" class="edge">
			<path fill="none" stroke="black" d="M672.3,-181.5 L831.0,-181.5"/>
			<polygon fill="black" stroke="black"/>
		</g>
		<g id="edge10" class="edge">
			<path fill="none" stroke="black" d="M831.0,-181.5 L831.0,-125.15"/>
			<polygon fill="black" stroke="black"/>
		</g>
		<g id="edge11" class="edge">
			<path fill="none" stroke="black" d="M932.25,-430.5 L1028.75,-430.5"/>
			<polygon fill="black" stroke="black"/>
		</g>
		<g id="edge12" class="edge">
			<path fill="none" stroke="black" d="M932.45,-347.5 L1288.72,-347.5"/>
			<polygon fill="black" stroke="black"/>
		</g>
		<g id="edge13" class="edge">
			<path fill="none" stroke="black" d="M932.47,-41.5 L2156.0,-41.5"/>
			<polygon fill="black" stroke="black"/>
		</g>
		<g id="edge14" class="edge">
			<path fill="none" stroke="black" d="M2156.0,-41.5 L2156.0,-320.62"/>
			<polygon fill="black" stroke="black"/>
		</g>
		<g id="edge15" class="edge">
			<path fill="none" stroke="black" d="M1192.47,-435.67 L2068.77,-435.67"/>
			<polygon fill="black" stroke="black"/>
		</g>
		<g id="edge16" class="edge">
			<path fill="none" stroke="black" d="M1192.25,-425.33 L1376.0,-425.33"/>
			<polygon fill="black" stroke="black"/>
		</g>
		<g id="edge17" class="edge">
			<path fill="none" stroke="black" d="M1452.25,-306.0 L1548.75,-306.0"/>
			<polygon fill="black" stroke="black"/>
		</g>
		<g id="edge18" class="edge">
			<path fill="none" stroke="black" d="M1116.0,-197.22 L1116.0,-259.33"/>
			<polygon fill="black" stroke="black"/>
		</g>
		<g id="edge19" class="edge">
			<path fill="none" stroke="black" d="M1116.0,-259.33 L1288.75,-259.33"/>
			<polygon fill="black" stroke="black"/>
		</g>
		<g id="edge20" class="edge">
			<path fill="none" stroke="black" d="M1712.25,-306.0 L1808.75,-306.0"/>
			<polygon fill="black" stroke="black"/>
		</g>
		<g id="edge21" class="edge">
			<path fill="none" stroke="black" d="M1972.25,-347.5 L2068.75,-347.5"/>
			<polygon fill="black" stroke="black"/>
		</g>
		<g id="edge22" class="edge">
			<path fill="none" stroke="black" d="M932.47,-389.0 L1371.0,-389.0 S1376.0,-384.0,1381.0,-389.0L2068.63,-389.0"/>
			<polygon fill="black" stroke="black"/>
		</g>
		<g id="edge23" class="edge">
			<path fill="none" stroke="black" d="M1376.0,-425.33 L1376.0,-374.22"/>
			<polygon fill="black" stroke="black"/>
		</g>
	</g>
</svg>
