<?xml version='1.0' encoding='utf-8'?>
<svg xmlns="http://www.w3.org/2000/svg" xmlns:xlink="http://www.w3.org/1999/xlink" width="2465.0pt" height="549.0pt" viewBox="0.00 0.00 2465.00 549.00"><g id="graph0" class="graph" transform="scale(1 1) rotate(0) translate(4 545)"><title>G</title><polygon fill="white" stroke="none" points="-4,4 -4,-11430.5 24679.5,-11430.5 24679.5,4 -4,4" /><g id="nodenode1" class="node"><polygon fill="none" stroke="none" points="227,-303.5 0,-303.5 0,-166.5 227,-166.5 227,-303.5" /><image xlink:href="/home/devinda_121260/Videos/examples/pythonProjectGraph/input/example1.svg" width="227px" height="136.2px" preserveAspectRatio="xMinYMin meet" x="0.0" y="-303.1" /></g><g id="nodenode4" class="node"><polygon fill="none" stroke="none" points="487,-385 335,-385 335,-271 487,-271 487,-385" /><image xlink:href="/home/devinda_121260/Videos/examples/pythonProjectGraph/input/example.svg" width="152px" height="114px" preserveAspectRatio="xMinYMin meet" x="335.0" y="-385.0" /></g><g id="nodenode5" class="node"><polygon fill="none" stroke="none" points="487,-199 335,-199 335,-85 487,-85 487,-199" /><image xlink:href="/home/devinda_121260/Videos/examples/pythonProjectGraph/input/example.svg" width="152px" height="114px" preserveAspectRatio="xMinYMin meet" x="335.0" y="-199.0" /></g><g id="nodenode2" class="node"><polygon fill="none" stroke="none" points="822,-303.5 595,-303.5 595,-166.5 822,-166.5 822,-303.5" /><image xlink:href="/home/devinda_121260/Videos/examples/pythonProjectGraph/input/example1.svg" width="227px" height="136.2px" preserveAspectRatio="xMinYMin meet" x="595.0" y="-303.1" /></g><g id="nodenode6" class="node"><polygon fill="none" stroke="none" points="1082,-470 930,-470 930,-356 1082,-356 1082,-470" /><image xlink:href="/home/devinda_121260/Videos/examples/pythonProjectGraph/input/example.svg" width="152px" height="114px" preserveAspectRatio="xMinYMin meet" x="930.0" y="-470.0" /></g><g id="nodenode7" class="node"><polygon fill="none" stroke="none" points="1082,-114 930,-114 930,0 1082,0 1082,-114" /><image xlink:href="/home/devinda_121260/Videos/examples/pythonProjectGraph/input/example.svg" width="152px" height="114px" preserveAspectRatio="xMinYMin meet" x="930.0" y="-114.0" /></g><g id="nodenode3" class="node"><polygon fill="none" stroke="none" points="1937,-313.5 1710,-313.5 1710,-176.5 1937,-176.5 1937,-313.5" /><image xlink:href="/home/devinda_121260/Videos/examples/pythonProjectGraph/input/example1.svg" width="227px" height="136.2px" preserveAspectRatio="xMinYMin meet" x="1710.0" y="-313.1" /></g><g id="nodenode12" class="node"><polygon fill="none" stroke="none" points="2197,-346 2045,-346 2045,-232 2197,-232 2197,-346" /><image xlink:href="/home/devinda_121260/Videos/examples/pythonProjectGraph/input/example.svg" width="152px" height="114px" preserveAspectRatio="xMinYMin meet" x="2045.0" y="-346.0" /></g><g id="nodenode8" class="node"><polygon fill="none" stroke="none" points="2457,-516 2305,-516 2305,-402 2457,-402 2457,-516" /><image xlink:href="/home/devinda_121260/Videos/examples/pythonProjectGraph/input/example.svg" width="152px" height="114px" preserveAspectRatio="xMinYMin meet" x="2305.0" y="-516.0" /></g><g id="nodenode9" class="node"><polygon fill="none" stroke="none" points="1342,-541 1190,-541 1190,-427 1342,-427 1342,-541" /><image xlink:href="/home/devinda_121260/Videos/examples/pythonProjectGraph/input/example.svg" width="152px" height="114px" preserveAspectRatio="xMinYMin meet" x="1190.0" y="-541.0" /></g><g id="nodenode10" class="node"><polygon fill="none" stroke="none" points="1602,-209 1450,-209 1450,-95 1602,-95 1602,-209" /><image xlink:href="/home/devinda_121260/Videos/examples/pythonProjectGraph/input/example.svg" width="152px" height="114px" preserveAspectRatio="xMinYMin meet" x="1450.0" y="-209.0" /></g><g id="nodenode13" class="node"><polygon fill="none" stroke="none" points="1602,-395 1450,-395 1450,-281 1602,-281 1602,-395" /><image xlink:href="/home/devinda_121260/Videos/examples/pythonProjectGraph/input/example.svg" width="152px" height="114px" preserveAspectRatio="xMinYMin meet" x="1450.0" y="-395.0" /></g><g id="nodenode11" class="node"><polygon fill="none" stroke="none" points="1342,-209 1190,-209 1190,-95 1342,-95 1342,-209" /><image xlink:href="/home/devinda_121260/Videos/examples/pythonProjectGraph/input/example.svg" width="152px" height="114px" preserveAspectRatio="xMinYMin meet" x="1190.0" y="-209.0" /></g><g id="arrow1" class="arrow"><polygon fill="black" stroke="black" points="323.64,-290.75 333.64,-287.25 323.64,-283.75 323.64,-290.75" /></g><g id="arrow2" class="arrow"><polygon fill="black" stroke="black" points="323.64,-186.25 333.64,-182.75 323.64,-179.25 323.64,-186.25" /></g><g id="arrow3" class="arrow"><polygon fill="black" stroke="black" points="1028.5,-344.81 1032,-354.81 1035.5,-344.81 1028.5,-344.81" /></g><g id="arrow4" class="arrow"><polygon fill="black" stroke="black" points="984.5,-125.35 981,-115.35 977.5,-125.35 984.5,-125.35" /></g><g id="arrow5" class="arrow"><polygon fill="black" stroke="black" points="2033.64,-276.25 2043.64,-272.75 2033.64,-269.25 2033.64,-276.25" /></g><g id="arrow6" class="arrow"><polygon fill="black" stroke="black" points="583.56,-290.75 593.55,-287.25 583.55,-283.75 583.56,-290.75" /></g><g id="arrow7" class="arrow"><polygon fill="black" stroke="black" points="918.64,-374 928.64,-370.5 918.64,-367 918.64,-374" /></g><g id="arrow8" class="arrow"><polygon fill="black" stroke="black" points="583.56,-186.25 593.55,-182.75 583.55,-179.25 583.56,-186.25" /></g><g id="arrow9" class="arrow"><polygon fill="black" stroke="black" points="918.64,-103 928.64,-99.5 918.64,-96 918.64,-103" /></g><g id="arrow10" class="arrow"><polygon fill="black" stroke="black" points="2293.59,-422.17 2303.59,-418.67 2293.59,-415.17 2293.59,-422.17" /></g><g id="arrow11" class="arrow"><polygon fill="black" stroke="black" points="1178.75,-452 1188.75,-448.5 1178.75,-445 1178.75,-452" /></g><g id="arrow12" class="arrow"><polygon fill="black" stroke="black" points="1438.83,-155.5 1448.83,-152 1438.83,-148.5 1438.83,-155.5" /></g><g id="arrow13" class="arrow"><polygon fill="black" stroke="black" points="2377.5,-390.78 2381,-400.78 2384.5,-390.78 2377.5,-390.78" /></g><g id="arrow14" class="arrow"><polygon fill="black" stroke="black" points="2293.85,-489.83 2303.85,-486.33 2293.85,-482.83 2293.85,-489.83" /></g><g id="arrow15" class="arrow"><polygon fill="black" stroke="black" points="1438.75,-184 1448.75,-180.5 1438.75,-177 1438.75,-184" /></g><g id="arrow16" class="arrow"><polygon fill="black" stroke="black" points="1438.75,-385.5 1448.75,-382 1438.75,-378.5 1438.75,-385.5" /></g><g id="arrow17" class="arrow"><polygon fill="black" stroke="black" points="1698.56,-196.25 1708.55,-192.75 1698.55,-189.25 1698.56,-196.25" /></g><g id="arrow18" class="arrow"><polygon fill="black" stroke="black" points="1438.75,-127 1448.75,-123.5 1438.75,-120 1438.75,-127" /></g><g id="arrow19" class="arrow"><polygon fill="black" stroke="black" points="2293.75,-413.83 2303.75,-410.33 2293.75,-406.83 2293.75,-413.83" /></g><g id="edge1" class="edge"><path fill="none" stroke="black" d="M227.25,-287.25 L323.64,-287.25" /><polygon fill="black" stroke="black" /></g><g id="edge2" class="edge"><path fill="none" stroke="black" d="M227.25,-182.75 L323.64,-182.75" /><polygon fill="black" stroke="black" /></g><g id="edge3" class="edge"><path fill="none" stroke="black" d="M822.1,-292.25 L1032.0,-292.25" /><polygon fill="black" stroke="black" /></g><g id="edge4" class="edge"><path fill="none" stroke="black" d="M1032.0,-292.25 L1032.0,-344.81" /><polygon fill="black" stroke="black" /></g><g id="edge5" class="edge"><path fill="none" stroke="black" d="M822.49,-187.75 L981.0,-187.75" /><polygon fill="black" stroke="black" /></g><g id="edge6" class="edge"><path fill="none" stroke="black" d="M981.0,-187.75 L981.0,-125.35" /><polygon fill="black" stroke="black" /></g><g id="edge7" class="edge"><path fill="none" stroke="black" d="M1937.25,-272.75 L2033.64,-272.75" /><polygon fill="black" stroke="black" /></g><g id="edge8" class="edge"><path fill="none" stroke="black" d="M487.23,-287.25 L583.55,-287.25" /><polygon fill="black" stroke="black" /></g><g id="edge9" class="edge"><path fill="none" stroke="black" d="M487.26,-370.5 L918.64,-370.5" /><polygon fill="black" stroke="black" /></g><g id="edge10" class="edge"><path fill="none" stroke="black" d="M487.23,-182.75 L583.55,-182.75" /><polygon fill="black" stroke="black" /></g><g id="edge11" class="edge"><path fill="none" stroke="black" d="M487.26,-99.5 L918.64,-99.5" /><polygon fill="black" stroke="black" /></g><g id="edge12" class="edge"><path fill="none" stroke="black" d="M1082.25,-448.5 L1178.75,-448.5" /><polygon fill="black" stroke="black" /></g><g id="edge13" class="edge"><path fill="none" stroke="black" d="M1082.18,-369.0 L1378.0,-369.0" /><polygon fill="black" stroke="black" /></g><g id="edge14" class="edge"><path fill="none" stroke="black" d="M1378.0,-369.0 L1378.0,-152.0" /><polygon fill="black" stroke="black" /></g><g id="edge15" class="edge"><path fill="none" stroke="black" d="M1378.0,-152.0 L1438.83,-152.0" /><polygon fill="black" stroke="black" /></g><g id="edge16" class="edge"><path fill="none" stroke="black" d="M1082.38,-47.5 L2381.0,-47.5" /><polygon fill="black" stroke="black" /></g><g id="edge17" class="edge"><path fill="none" stroke="black" d="M2381.0,-47.5 L2381.0,-390.78" /><polygon fill="black" stroke="black" /></g><g id="edge18" class="edge"><path fill="none" stroke="black" d="M1342.2,-486.33 L2293.85,-486.33" /><polygon fill="black" stroke="black" /></g><g id="edge19" class="edge"><path fill="none" stroke="black" d="M1342.17,-456.67 L1414.0,-456.67" /><polygon fill="black" stroke="black" /></g><g id="edge20" class="edge"><path fill="none" stroke="black" d="M1414.0,-180.5 L1438.75,-180.5" /><polygon fill="black" stroke="black" /></g><g id="edge21" class="edge"><path fill="none" stroke="black" d="M1602.23,-192.75 L1698.55,-192.75" /><polygon fill="black" stroke="black" /></g><g id="edge22" class="edge"><path fill="none" stroke="black" d="M1342.25,-123.5 L1438.75,-123.5" /><polygon fill="black" stroke="black" /></g><g id="edge23" class="edge"><path fill="none" stroke="black" d="M2121.0,-346.47 L2121.0,-410.33" /><polygon fill="black" stroke="black" /></g><g id="edge24" class="edge"><path fill="none" stroke="black" d="M2121.0,-410.33 L2293.75,-410.33" /><polygon fill="black" stroke="black" /></g><g id="edge25" class="edge"><path fill="none" stroke="black" d="M1082.38,-418.67 L1261.0,-418.67 S1266.0,-413.67,1271.0,-418.67L1409.0,-418.67 S1414.0,-413.67,1419.0,-418.67L2293.59,-418.67" /><polygon fill="black" stroke="black" /></g><g id="edge26" class="edge"><path fill="none" stroke="black" d="M1414.0,-456.67 L1414.0,-180.5" /><polygon fill="black" stroke="black" /></g><g id="edge27" class="edge"><path fill="none" stroke="black" d="M1266.0,-426.74 L1266.0,-382.0" /><polygon fill="black" stroke="black" /></g><g id="edge28" class="edge"><path fill="none" stroke="black" d="M1266.0,-382.0 L1409.0,-382.0 S1414.0,-377.0,1419.0,-382.0L1438.75,-382.0" /><polygon fill="black" stroke="black" /></g></g></svg>