<?xml version='1.0' encoding='UTF-8'?>
<svg xmlns="http://www.w3.org/2000/svg" xmlns:xlink="http://www.w3.org/1999/xlink" width="2465.0px" height="549.0px" viewBox="0.00 0.00 2465.00 549.00">
  <g id="graph0" class="graph" transform="scale(1 1) rotate(0) translate(4 545)">
    <title>G</title>
    <polygon fill="white" stroke="none" points="-4,4 -4,-545 2461,-545 2461,4 -4,4"/>
    <!-- A -->
    <g id="node1" class="node">
      <title>A</title>
      <polygon fill="none" stroke="none" points="227,-303.5 0,-303.5 0,-166.5 227,-166.5 227,-303.5"/>
      <image xlink:href="/home/devinda_121260/Videos/examples/pythonProjectGraph/input/example1.svg" width="227px" height="136.2px" preserveAspectRatio="xMinYMin meet" x="0" y="-303.1"/>
    </g>
    <!-- B -->
    <g id="node4" class="node">
      <title>B</title>
      <polygon fill="none" stroke="none" points="487,-385 335,-385 335,-271 487,-271 487,-385"/>
      <image xlink:href="/home/devinda_121260/Videos/examples/pythonProjectGraph/input/example.svg" width="152px" height="114px" preserveAspectRatio="xMinYMin meet" x="335" y="-385"/>
    </g>
    <!-- A&#45;&gt;B -->
    <g id="edge1" class="edge">
      <title>A-&gt;B</title>
      <path fill="none" stroke="black" d="M227.25,-287.25C227.25,-287.25 323.64,-287.25 323.64,-287.25"/>
      <polygon fill="black" stroke="black" points="323.64,-290.75 333.64,-287.25 323.64,-283.75 323.64,-290.75"/>
    </g>
    <!-- C -->
    <g id="node5" class="node">
      <title>C</title>
      <polygon fill="none" stroke="none" points="487,-199 335,-199 335,-85 487,-85 487,-199"/>
      <image xlink:href="/home/devinda_121260/Videos/examples/pythonProjectGraph/input/example.svg" width="152px" height="114px" preserveAspectRatio="xMinYMin meet" x="335" y="-199"/>
    </g>
    <!-- A&#45;&gt;C -->
    <g id="edge2" class="edge">
      <title>A-&gt;C</title>
      <path fill="none" stroke="black" d="M227.25,-182.75C227.25,-182.75 323.64,-182.75 323.64,-182.75"/>
      <polygon fill="black" stroke="black" points="323.64,-186.25 333.64,-182.75 323.64,-179.25 323.64,-186.25"/>
    </g>
    <!-- D -->
    <g id="node2" class="node">
      <title>D</title>
      <polygon fill="none" stroke="none" points="822,-303.5 595,-303.5 595,-166.5 822,-166.5 822,-303.5"/>
      <image xlink:href="/home/devinda_121260/Videos/examples/pythonProjectGraph/input/example1.svg" width="227px" height="136.2px" preserveAspectRatio="xMinYMin meet" x="595" y="-303.1"/>
    </g>
    <!-- E -->
    <g id="node6" class="node">
      <title>E</title>
      <polygon fill="none" stroke="none" points="1082,-470 930,-470 930,-356 1082,-356 1082,-470"/>
      <image xlink:href="/home/devinda_121260/Videos/examples/pythonProjectGraph/input/example.svg" width="152px" height="114px" preserveAspectRatio="xMinYMin meet" x="930" y="-470"/>
    </g>
    <!-- D&#45;&gt;E -->
    <g id="edge5" class="edge">
      <title>D-&gt;E</title>
      <path fill="none" stroke="black" d="M822.1,-292.25C915.31,-292.25 1032,-292.25 1032,-292.25 1032,-292.25 1032,-344.81 1032,-344.81"/>
      <polygon fill="black" stroke="black" points="1028.5,-344.81 1032,-354.81 1035.5,-344.81 1028.5,-344.81"/>
    </g>
    <!-- F -->
    <g id="node7" class="node">
      <title>F</title>
      <polygon fill="none" stroke="none" points="1082,-114 930,-114 930,0 1082,0 1082,-114"/>
      <image xlink:href="/home/devinda_121260/Videos/examples/pythonProjectGraph/input/example.svg" width="152px" height="114px" preserveAspectRatio="xMinYMin meet" x="930" y="-114"/>
    </g>
    <!-- D&#45;&gt;F -->
    <g id="edge6" class="edge">
      <title>D-&gt;F</title>
      <path fill="none" stroke="black" d="M822.49,-187.75C897.16,-187.75 981,-187.75 981,-187.75 981,-187.75 981,-125.35 981,-125.35"/>
      <polygon fill="black" stroke="black" points="984.5,-125.35 981,-115.35 977.5,-125.35 984.5,-125.35"/>
    </g>
    <!-- K -->
    <g id="node3" class="node">
      <title>K</title>
      <polygon fill="none" stroke="none" points="1937,-313.5 1710,-313.5 1710,-176.5 1937,-176.5 1937,-313.5"/>
      <image xlink:href="/home/devinda_121260/Videos/examples/pythonProjectGraph/input/example1.svg" width="227px" height="136.2px" preserveAspectRatio="xMinYMin meet" x="1710" y="-313.1"/>
    </g>
    <!-- L -->
    <g id="node12" class="node">
      <title>L</title>
      <polygon fill="none" stroke="none" points="2197,-346 2045,-346 2045,-232 2197,-232 2197,-346"/>
      <image xlink:href="/home/devinda_121260/Videos/examples/pythonProjectGraph/input/example.svg" width="152px" height="114px" preserveAspectRatio="xMinYMin meet" x="2045" y="-346"/>
    </g>
    <!-- K&#45;&gt;L -->
    <g id="edge13" class="edge">
      <title>K-&gt;L</title>
      <path fill="none" stroke="black" d="M1937.25,-272.75C1937.25,-272.75 2033.64,-272.75 2033.64,-272.75"/>
      <polygon fill="black" stroke="black" points="2033.64,-276.25 2043.64,-272.75 2033.64,-269.25 2033.64,-276.25"/>
    </g>
    <!-- B&#45;&gt;D -->
    <g id="edge3" class="edge">
      <title>B-&gt;D</title>
      <path fill="none" stroke="black" d="M487.23,-287.25C487.23,-287.25 583.55,-287.25 583.55,-287.25"/>
      <polygon fill="black" stroke="black" points="583.56,-290.75 593.55,-287.25 583.55,-283.75 583.56,-290.75"/>
    </g>
    <!-- B&#45;&gt;E -->
    <g id="edge15" class="edge">
      <title>B-&gt;E</title>
      <path fill="none" stroke="black" d="M487.26,-370.5C487.26,-370.5 918.64,-370.5 918.64,-370.5"/>
      <polygon fill="black" stroke="black" points="918.64,-374 928.64,-370.5 918.64,-367 918.64,-374"/>
    </g>
    <!-- C&#45;&gt;D -->
    <g id="edge4" class="edge">
      <title>C-&gt;D</title>
      <path fill="none" stroke="black" d="M487.23,-182.75C487.23,-182.75 583.55,-182.75 583.55,-182.75"/>
      <polygon fill="black" stroke="black" points="583.56,-186.25 593.55,-182.75 583.55,-179.25 583.56,-186.25"/>
    </g>
    <!-- C&#45;&gt;F -->
    <g id="edge16" class="edge">
      <title>C-&gt;F</title>
      <path fill="none" stroke="black" d="M487.26,-99.5C487.26,-99.5 918.64,-99.5 918.64,-99.5"/>
      <polygon fill="black" stroke="black" points="918.64,-103 928.64,-99.5 918.64,-96 918.64,-103"/>
    </g>
    <!-- G -->
    <g id="node8" class="node">
      <title>G</title>
      <polygon fill="none" stroke="none" points="2457,-516 2305,-516 2305,-402 2457,-402 2457,-516"/>
      <image xlink:href="/home/devinda_121260/Videos/examples/pythonProjectGraph/input/example.svg" width="152px" height="114px" preserveAspectRatio="xMinYMin meet" x="2305" y="-516"/>
    </g>
    <!-- E&#45;&gt;G -->
    <g id="edge7" class="edge">
      <title>E-&gt;G</title>
      <path fill="none" stroke="black" d="M1082.38,-418.67C1082.38,-418.67 2293.59,-418.67 2293.59,-418.67"/>
      <polygon fill="black" stroke="black" points="2293.59,-422.17 2303.59,-418.67 2293.59,-415.17 2293.59,-422.17"/>
    </g>
    <!-- H -->
    <g id="node9" class="node">
      <title>H</title>
      <polygon fill="none" stroke="none" points="1342,-541 1190,-541 1190,-427 1342,-427 1342,-541"/>
      <image xlink:href="/home/devinda_121260/Videos/examples/pythonProjectGraph/input/example.svg" width="152px" height="114px" preserveAspectRatio="xMinYMin meet" x="1190" y="-541"/>
    </g>
    <!-- E&#45;&gt;H -->
    <g id="edge9" class="edge">
      <title>E-&gt;H</title>
      <path fill="none" stroke="black" d="M1082.25,-448.5C1082.25,-448.5 1178.75,-448.5 1178.75,-448.5"/>
      <polygon fill="black" stroke="black" points="1178.75,-452 1188.75,-448.5 1178.75,-445 1178.75,-452"/>
    </g>
    <!-- J -->
    <g id="node10" class="node">
      <title>J</title>
      <polygon fill="none" stroke="none" points="1602,-209 1450,-209 1450,-95 1602,-95 1602,-209"/>
      <image xlink:href="/home/devinda_121260/Videos/examples/pythonProjectGraph/input/example.svg" width="152px" height="114px" preserveAspectRatio="xMinYMin meet" x="1450" y="-209"/>
    </g>
    <!-- E&#45;&gt;J -->
    <g id="edge17" class="edge">
      <title>E-&gt;J</title>
      <path fill="none" stroke="black" d="M1082.18,-369C1191.01,-369 1378,-369 1378,-369 1378,-369 1378,-152 1378,-152 1378,-152 1438.83,-152 1438.83,-152"/>
      <polygon fill="black" stroke="black" points="1438.83,-155.5 1448.83,-152 1438.83,-148.5 1438.83,-155.5"/>
    </g>
    <!-- F&#45;&gt;G -->
    <g id="edge8" class="edge">
      <title>F-&gt;G</title>
      <path fill="none" stroke="black" d="M1082.38,-47.5C1371.29,-47.5 2381,-47.5 2381,-47.5 2381,-47.5 2381,-390.78 2381,-390.78"/>
      <polygon fill="black" stroke="black" points="2377.5,-390.78 2381,-400.78 2384.5,-390.78 2377.5,-390.78"/>
    </g>
    <!-- H&#45;&gt;G -->
    <g id="edge18" class="edge">
      <title>H-&gt;G</title>
      <path fill="none" stroke="black" d="M1342.2,-486.33C1342.2,-486.33 2293.85,-486.33 2293.85,-486.33"/>
      <polygon fill="black" stroke="black" points="2293.85,-489.83 2303.85,-486.33 2293.85,-482.83 2293.85,-489.83"/>
    </g>
    <!-- H&#45;&gt;J -->
    <g id="edge10" class="edge">
      <title>H-&gt;J</title>
      <path fill="none" stroke="black" d="M1342.17,-456.67C1378.43,-456.67 1414,-456.67 1414,-456.67 1414,-456.67 1414,-180.5 1414,-180.5 1414,-180.5 1438.75,-180.5 1438.75,-180.5"/>
      <polygon fill="black" stroke="black" points="1438.75,-184 1448.75,-180.5 1438.75,-177 1438.75,-184"/>
    </g>
    <!-- P -->
    <g id="node13" class="node">
      <title>P</title>
      <polygon fill="none" stroke="none" points="1602,-395 1450,-395 1450,-281 1602,-281 1602,-395"/>
      <image xlink:href="/home/devinda_121260/Videos/examples/pythonProjectGraph/input/example.svg" width="152px" height="114px" preserveAspectRatio="xMinYMin meet" x="1450" y="-395"/>
    </g>
    <!-- H&#45;&gt;P -->
    <g id="edge19" class="edge">
      <title>H-&gt;P</title>
      <path fill="none" stroke="black" d="M1266,-426.74C1266,-403.49 1266,-382 1266,-382 1266,-382 1438.75,-382 1438.75,-382"/>
      <polygon fill="black" stroke="black" points="1438.75,-385.5 1448.75,-382 1438.75,-378.5 1438.75,-385.5"/>
    </g>
    <!-- J&#45;&gt;K -->
    <g id="edge12" class="edge">
      <title>J-&gt;K</title>
      <path fill="none" stroke="black" d="M1602.23,-192.75C1602.23,-192.75 1698.55,-192.75 1698.55,-192.75"/>
      <polygon fill="black" stroke="black" points="1698.56,-196.25 1708.55,-192.75 1698.55,-189.25 1698.56,-196.25"/>
    </g>
    <!-- I -->
    <g id="node11" class="node">
      <title>I</title>
      <polygon fill="none" stroke="none" points="1342,-209 1190,-209 1190,-95 1342,-95 1342,-209"/>
      <image xlink:href="/home/devinda_121260/Videos/examples/pythonProjectGraph/input/example.svg" width="152px" height="114px" preserveAspectRatio="xMinYMin meet" x="1190" y="-209"/>
    </g>
    <!-- I&#45;&gt;J -->
    <g id="edge11" class="edge">
      <title>I-&gt;J</title>
      <path fill="none" stroke="black" d="M1342.25,-123.5C1342.25,-123.5 1438.75,-123.5 1438.75,-123.5"/>
      <polygon fill="black" stroke="black" points="1438.75,-127 1448.75,-123.5 1438.75,-120 1438.75,-127"/>
    </g>
    <!-- L&#45;&gt;G -->
    <g id="edge14" class="edge">
      <title>L-&gt;G</title>
      <path fill="none" stroke="black" d="M2121,-346.47C2121,-377.83 2121,-410.33 2121,-410.33 2121,-410.33 2293.75,-410.33 2293.75,-410.33"/>
      <polygon fill="black" stroke="black" points="2293.75,-413.83 2303.75,-410.33 2293.75,-406.83 2293.75,-413.83"/>
    </g>
  </g>
</svg>
